<?xml version="1.0" encoding="UTF-8"?>
<!DOCTYPE svg PUBLIC "-//W3C//DTD SVG 1.1//EN" "http://www.w3.org/Graphics/SVG/1.1/DTD/svg11.dtd">
<svg xmlns="http://www.w3.org/2000/svg" version="1.1" width="101px" height="30px" style="shape-rendering:geometricPrecision; text-rendering:geometricPrecision; image-rendering:optimizeQuality; fill-rule:evenodd; clip-rule:evenodd" xmlns:xlink="http://www.w3.org/1999/xlink">
<g><path style="opacity:1" fill="#f7ebea" d="M -0.5,-0.5 C 7.5,-0.5 15.5,-0.5 23.5,-0.5C 23.7022,1.9892 23.2022,4.32253 22,6.5C 21.6174,5.94404 21.1174,5.61071 20.5,5.5C 21.893,1.92529 20.7264,0.925289 17,2.5C 16.2607,4.22052 15.4274,5.88718 14.5,7.5C 13.5937,5.61358 12.5937,3.78025 11.5,2C 10.365,1.25061 9.36495,1.41728 8.5,2.5C 9.85418,6.23533 11.1875,9.902 12.5,13.5C 8.65685,12.3496 4.99019,10.683 1.5,8.5C 0.386147,9.72296 0.219481,11.0563 1,12.5C 2.78025,13.5937 4.61358,14.5937 6.5,15.5C 5.15017,16.9501 3.4835,17.6168 1.5,17.5C 1.23798,18.9778 1.57131,20.3112 2.5,21.5C 5.44333,20.3873 8.27667,19.054 11,17.5C 11.5,17.8333 12,18.1667 12.5,18.5C 10.5936,21.64 9.26025,24.9734 8.5,28.5C 11.1008,27.7204 13.1008,26.0537 14.5,23.5C 15.624,24.914 16.624,26.414 17.5,28C 18.448,28.4828 19.448,28.6495 20.5,28.5C 19.5573,24.4385 17.8906,20.6051 15.5,17C 18.1805,17.4911 20.8472,18.3244 23.5,19.5C 23.5,19.8333 23.5,20.1667 23.5,20.5C 22.0222,20.238 20.6888,20.5713 19.5,21.5C 21.2289,23.8511 21.8956,26.5178 21.5,29.5C 14.1667,29.5 6.83333,29.5 -0.5,29.5C -0.5,19.5 -0.5,9.5 -0.5,-0.5 Z"/></g>
<g><path style="opacity:1" fill="#f7f5f4" d="M 23.5,-0.5 C 28.8333,-0.5 34.1667,-0.5 39.5,-0.5C 40.0256,1.23033 41.0256,2.56366 42.5,3.5C 42.5,11.8333 42.5,20.1667 42.5,28.5C 44.1667,28.5 45.8333,28.5 47.5,28.5C 47.5,28.8333 47.5,29.1667 47.5,29.5C 38.8333,29.5 30.1667,29.5 21.5,29.5C 21.8956,26.5178 21.2289,23.8511 19.5,21.5C 20.6888,20.5713 22.0222,20.238 23.5,20.5C 25.1172,21.038 26.7839,21.3713 28.5,21.5C 28.5323,19.3812 27.5323,18.0478 25.5,17.5C 24.3569,17.0919 23.3569,16.4252 22.5,15.5C 24.0009,14.2485 25.6675,13.2485 27.5,12.5C 28.4287,11.3112 28.762,9.97782 28.5,8.5C 24.7774,9.85808 21.1108,11.5247 17.5,13.5C 16.759,10.2937 17.759,7.62708 20.5,5.5C 21.1174,5.61071 21.6174,5.94404 22,6.5C 23.2022,4.32253 23.7022,1.9892 23.5,-0.5 Z"/></g>
<g><path style="opacity:1" fill="#eeeeee" d="M 39.5,-0.5 C 59.8333,-0.5 80.1667,-0.5 100.5,-0.5C 100.5,9.5 100.5,19.5 100.5,29.5C 82.8333,29.5 65.1667,29.5 47.5,29.5C 47.5,29.1667 47.5,28.8333 47.5,28.5C 48.2389,28.631 48.9056,28.4643 49.5,28C 48.2341,27.6905 47.0674,27.1905 46,26.5C 45.1859,18.5872 45.3526,10.7538 46.5,3C 44.9343,2.23502 43.6009,2.40168 42.5,3.5C 41.0256,2.56366 40.0256,1.23033 39.5,-0.5 Z"/></g>
<g><path style="opacity:1" fill="#4d4d4d" d="M 63.5,2.5 C 68.67,1.53404 74.0033,1.53404 79.5,2.5C 79.6621,4.5273 79.4955,6.5273 79,8.5C 77.8118,7.43659 77.3118,6.10326 77.5,4.5C 73.5483,3.72791 69.5483,3.39458 65.5,3.5C 65.1583,2.66175 64.4916,2.32842 63.5,2.5 Z"/></g>
<g><path style="opacity:1" fill="#535353" d="M 89.5,2.5 C 91.9664,1.36594 94.633,1.19927 97.5,2C 98.5536,3.38762 98.7203,4.88762 98,6.5C 96.1521,4.04706 93.6521,3.04706 90.5,3.5C 90.5,2.83333 90.1667,2.5 89.5,2.5 Z"/></g>
<g><path style="opacity:1" fill="#222222" d="M 47.5,28.5 C 45.8333,28.5 44.1667,28.5 42.5,28.5C 42.5,20.1667 42.5,11.8333 42.5,3.5C 43.6009,2.40168 44.9343,2.23502 46.5,3C 45.3526,10.7538 45.1859,18.5872 46,26.5C 47.0674,27.1905 48.2341,27.6905 49.5,28C 48.9056,28.4643 48.2389,28.631 47.5,28.5 Z"/></g>
<g><path style="opacity:1" fill="#1c1c1c" d="M 89.5,2.5 C 90.1667,2.5 90.5,2.83333 90.5,3.5C 87.7564,4.07167 86.9231,5.73834 88,8.5C 90.5419,11.6168 93.5419,14.2834 97,16.5C 99.5348,21.1413 98.7015,24.9746 94.5,28C 91.1832,28.4983 87.8499,28.665 84.5,28.5C 84.3398,26.8008 84.5065,25.1341 85,23.5C 87.0481,27.4971 90.2148,28.4971 94.5,26.5C 96.2562,24.8087 96.7562,22.8087 96,20.5C 92.4779,17.7341 89.1446,14.7341 86,11.5C 85.3333,9.16667 85.3333,6.83333 86,4.5C 86.8159,3.17723 87.9826,2.51056 89.5,2.5 Z"/></g>
<g><path style="opacity:1" fill="#bb262f" d="M 20.5,5.5 C 17.759,7.62708 16.759,10.2937 17.5,13.5C 21.1108,11.5247 24.7774,9.85808 28.5,8.5C 28.762,9.97782 28.4287,11.3112 27.5,12.5C 25.6675,13.2485 24.0009,14.2485 22.5,15.5C 23.3569,16.4252 24.3569,17.0919 25.5,17.5C 25.5,18.8333 24.8333,19.5 23.5,19.5C 20.8472,18.3244 18.1805,17.4911 15.5,17C 17.8906,20.6051 19.5573,24.4385 20.5,28.5C 19.448,28.6495 18.448,28.4828 17.5,28C 16.624,26.414 15.624,24.914 14.5,23.5C 13.1008,26.0537 11.1008,27.7204 8.5,28.5C 9.26025,24.9734 10.5936,21.64 12.5,18.5C 12,18.1667 11.5,17.8333 11,17.5C 8.27667,19.054 5.44333,20.3873 2.5,21.5C 1.57131,20.3112 1.23798,18.9778 1.5,17.5C 3.4835,17.6168 5.15017,16.9501 6.5,15.5C 4.61358,14.5937 2.78025,13.5937 1,12.5C 0.219481,11.0563 0.386147,9.72296 1.5,8.5C 4.99019,10.683 8.65685,12.3496 12.5,13.5C 11.1875,9.902 9.85418,6.23533 8.5,2.5C 9.36495,1.41728 10.365,1.25061 11.5,2C 12.5937,3.78025 13.5937,5.61358 14.5,7.5C 15.4274,5.88718 16.2607,4.22052 17,2.5C 20.7264,0.925289 21.893,1.92529 20.5,5.5 Z"/></g>
<g><path style="opacity:1" fill="#9b273f" d="M 25.5,17.5 C 27.5323,18.0478 28.5323,19.3812 28.5,21.5C 26.7839,21.3713 25.1172,21.038 23.5,20.5C 23.5,20.1667 23.5,19.8333 23.5,19.5C 24.8333,19.5 25.5,18.8333 25.5,17.5 Z"/></g>
<g><path style="opacity:1" fill="#1a1a1a" d="M 63.5,2.5 C 64.4916,2.32842 65.1583,2.66175 65.5,3.5C 59.4899,4.34765 56.4899,7.84765 56.5,14C 58.4917,24.6561 64.825,28.9894 75.5,27C 78.2296,23.5406 78.8963,23.8739 77.5,28C 71.7469,28.8508 66.0802,28.5174 60.5,27C 53.5622,21.749 52.0622,15.249 56,7.5C 57.8567,4.80017 60.3567,3.1335 63.5,2.5 Z"/></g>
</svg>
